<svg xmlns="http://www.w3.org/2000/svg" version="1.1" xmlns:xlink="http://www.w3.org/1999/xlink" width="1500" height="89" viewBox="0 0 1500 89"><svg xml:space="preserve" width="1500" height="89" data-version="2" data-id="lg_Ng0WfXAiHyyjUNAMU4" viewBox="0 0 619 89" x="0" y="0"><rect width="100%" height="100%" fill="transparent"></rect><path d="M120.815 67.443q-1.33 0-2.28-.95-.96-.96-.96-2.28V5.863q0-1.41.96-2.33.95-.91 2.28-.91 1.99 0 2.91 1.66l27.97 55.61h-2.82l27.47-55.61q.99-1.66 2.9-1.66 1.33 0 2.24.91.92.92.92 2.33v58.35q0 1.32-.92 2.28-.91.95-2.24.95-1.41 0-2.36-.95-.96-.96-.96-2.28v-49.97l1.41.08-24.48 50.05q-.91 1.58-2.82 1.58-2.08 0-2.99-1.99l-24.65-49.3 1.66-.42v49.97q0 1.32-.96 2.28-.95.95-2.28.95"></path><rect width="64.83" height="64.82" x="-32.41" y="-32.41" fill="none" rx="0" ry="0" transform="translate(150.49 35.53)"></rect><path d="M204.895 87.203q-.66 0-1.49-.33-2.83-1.25-1.58-3.99l26.81-59.09q1.24-2.66 3.98-1.5 2.82 1.16 1.58 3.9l-26.89 59.1q-.83 1.91-2.41 1.91m9.21-21.17q-1.24.58-2.32.21-1.08-.37-1.74-1.62l-18.51-38.34q-.58-1.25-.17-2.33.42-1.08 1.66-1.66 1.25-.58 2.33-.21 1.07.38 1.66 1.62l18.17 38.35q.67 1.24.42 2.32-.25 1.08-1.5 1.66"></path><rect width="43.91" height="65.65" x="-21.95" y="-32.83" fill="none" rx="0" ry="0" transform="translate(213.53 54.88)"></rect><path d="M268.805 67.443q-1.41 0-2.32-.91-.92-.91-.92-2.32V5.863q0-1.41.92-2.33.91-.91 2.32-.91h16.6q6.14 0 10.87 2.7 4.73 2.7 7.39 7.43 2.66 4.73 2.66 10.95 0 6.06-2.66 10.75t-7.39 7.39q-4.73 2.7-10.87 2.7h-13.36v19.67q0 1.41-.92 2.32-.91.91-2.32.91m3.24-58.59v29.46h13.36q4.23 0 7.55-1.87 3.32-1.86 5.19-5.18 1.87-3.32 1.87-7.56 0-4.4-1.87-7.72-1.87-3.32-5.19-5.23-3.32-1.9-7.55-1.9z"></path><rect width="40.76" height="64.82" x="-20.38" y="-32.41" fill="none" rx="0" ry="0" transform="translate(286.44 35.53)"></rect><path d="M335.125 67.863q-6.64 0-11.87-2.99-5.23-2.99-8.22-8.22t-2.99-11.87q0-6.72 2.99-11.95 2.99-5.23 8.22-8.21 5.23-2.99 11.87-2.99 6.64 0 11.82 2.99 5.19 2.98 8.18 8.21 2.99 5.23 3.07 11.95 0 6.64-3.03 11.87-3.03 5.23-8.22 8.22-5.18 2.99-11.82 2.99m0-5.81q4.81 0 8.63-2.24 3.82-2.24 5.98-6.14 2.15-3.91 2.15-8.89t-2.15-8.92q-2.16-3.94-5.98-6.18-3.82-2.24-8.63-2.24-4.82 0-8.63 2.24-3.82 2.24-6.02 6.18-2.2 3.94-2.2 8.92t2.2 8.89q2.2 3.9 6.02 6.14 3.81 2.24 8.63 2.24"></path><rect width="46.15" height="46.23" x="-23.07" y="-23.11" fill="none" rx="0" ry="0" transform="translate(335.62 45.25)"></rect><path d="M375.875 39.473h-3.65q.25-5.14 2.7-9.21 2.44-4.07 6.39-6.39 3.94-2.33 8.75-2.33 3.82 0 5.9 1.08 2.07 1.08 1.57 3.16-.33 1.24-1.12 1.66-.79.41-1.91.33-1.12-.08-2.53-.17-4.65-.41-8.26.96-3.61 1.37-5.72 4.19-2.12 2.82-2.12 6.72m-3.15 27.97q-1.5 0-2.33-.83-.83-.83-.83-2.32v-39.09q0-1.5.83-2.33.83-.83 2.33-.83 1.49 0 2.32.83.83.83.83 2.33v39.09q0 1.49-.83 2.32-.83.83-2.32.83"></path><rect width="28.25" height="45.9" x="-14.12" y="-22.95" fill="none" rx="0" ry="0" transform="translate(384.19 45)"></rect><path d="M426.005 67.444h-1.74q-4.4 0-7.84-2.07-3.45-2.08-5.44-5.69-1.99-3.61-1.99-8.26v-40.58q0-1.41.87-2.33.87-.91 2.28-.91 1.41 0 2.33.91.91.92.91 2.33v40.58q0 4.24 2.49 6.94 2.49 2.69 6.39 2.69h2.24q1.33 0 2.16.92.83.91.83 2.32 0 1.41-1 2.28-.99.87-2.49.87m-1.24-38.18h-21.17q-1.24 0-2.07-.78-.83-.79-.83-1.96 0-1.24.83-2.03.83-.79 2.07-.79h21.17q1.24 0 2.07.79.83.79.83 2.03 0 1.17-.83 1.96-.83.78-2.07.78"></path><rect width="28.8" height="59.84" x="-14.4" y="-29.92" fill="none" rx="0" ry="0" transform="translate(415.6 38.02)"></rect><path d="M444.435 67.443q-1.25 0-2.16-.87-.91-.87-.91-2.36v-42.08q0-5.81 1.99-10.21 1.99-4.4 5.89-6.85 3.9-2.45 9.55-2.45 1.41 0 2.32.83.91.83.91 2.08 0 1.24-.91 2.07-.91.83-2.32.83-3.74 0-6.19 1.7-2.44 1.7-3.65 4.73-1.2 3.03-1.2 6.93v42.42q0 1.49-.87 2.36-.87.87-2.45.87m13.28-38.18h-21.66q-1.33 0-2.12-.78-.79-.79-.79-1.96 0-1.24.79-2.03.79-.79 2.12-.79h21.66q1.33 0 2.11.79.79.79.79 2.03 0 1.17-.79 1.96-.78.78-2.11.78"></path><rect width="28.88" height="64.82" x="-14.44" y="-32.41" fill="none" rx="0" ry="0" transform="translate(448.08 35.53)"></rect><path d="M488.755 67.863q-6.64 0-11.87-2.99-5.23-2.99-8.22-8.22-2.98-5.23-2.98-11.87 0-6.72 2.98-11.95 2.99-5.23 8.22-8.21 5.23-2.99 11.87-2.99 6.64 0 11.83 2.99 5.19 2.98 8.17 8.21 2.99 5.23 3.07 11.95 0 6.64-3.03 11.87-3.02 5.23-8.21 8.22-5.19 2.99-11.83 2.99m0-5.81q4.81 0 8.63-2.24 3.82-2.24 5.98-6.14 2.16-3.91 2.16-8.89t-2.16-8.92q-2.16-3.94-5.98-6.18-3.82-2.24-8.63-2.24-4.81 0-8.63 2.24-3.82 2.24-6.02 6.18-2.2 3.94-2.2 8.92t2.2 8.89q2.2 3.9 6.02 6.14 3.82 2.24 8.63 2.24"></path><rect width="46.14" height="46.23" x="-23.07" y="-23.11" fill="none" rx="0" ry="0" transform="translate(489.25 45.25)"></rect><path d="M534.075 67.443h-1.08q-3.32 0-5.94-1.82-2.61-1.83-4.06-5.07-1.45-3.23-1.45-7.47V5.773q0-1.41.87-2.28.87-.87 2.28-.87 1.41 0 2.28.87.87.87.87 2.28v47.31q0 3.57 1.46 5.81 1.45 2.25 3.69 2.25h2.07q1.25 0 2 .87.74.87.74 2.28 0 1.41-1.03 2.28-1.04.87-2.7.87"></path><rect width="16.26" height="64.82" x="-8.13" y="-32.41" fill="none" rx="0" ry="0" transform="translate(530.17 35.53)"></rect><path d="M550.095 67.444q-1.5 0-2.37-.87-.87-.87-.87-2.36v-38.93q0-1.49.87-2.37.87-.87 2.37-.87 1.41 0 2.28.87.87.88.87 2.37v38.93q0 1.49-.87 2.36-.87.87-2.28.87m-.09-54.03q-1.82 0-3.15-1.33-1.33-1.33-1.33-3.23 0-2.08 1.37-3.28 1.37-1.21 3.2-1.21 1.74 0 3.11 1.21 1.37 1.2 1.37 3.28 0 1.9-1.33 3.23t-3.24 1.33"></path><rect width="9.05" height="63.08" x="-4.53" y="-31.54" fill="none" rx="0" ry="0" transform="translate(550.55 36.4)"></rect><path d="M589.105 67.863q-6.64 0-11.87-2.99-5.23-2.99-8.22-8.22t-2.99-11.87q0-6.72 2.99-11.95 2.99-5.23 8.22-8.21 5.23-2.99 11.87-2.99 6.64 0 11.82 2.99 5.19 2.98 8.18 8.21 2.99 5.23 3.07 11.95 0 6.64-3.03 11.87-3.03 5.23-8.22 8.22-5.18 2.99-11.82 2.99m0-5.81q4.81 0 8.63-2.24 3.82-2.24 5.98-6.14 2.15-3.91 2.15-8.89t-2.15-8.92q-2.16-3.94-5.98-6.18-3.82-2.24-8.63-2.24-4.82 0-8.63 2.24-3.82 2.24-6.02 6.18-2.2 3.94-2.2 8.92t2.2 8.89q2.2 3.9 6.02 6.14 3.81 2.24 8.63 2.24"></path><rect width="46.15" height="46.23" x="-23.07" y="-23.11" fill="none" rx="0" ry="0" transform="translate(589.6 45.25)"></rect><path d="M20.893 41.89H9.478a3.656 3.656 0 0 0-3.653 3.653v11.415a3.656 3.656 0 0 0 3.653 3.653h11.415a3.656 3.656 0 0 0 3.653-3.653V45.543a3.656 3.656 0 0 0-3.653-3.653m20.547 0H30.025a3.656 3.656 0 0 0-3.653 3.653v11.415a3.656 3.656 0 0 0 3.653 3.653H41.44a3.656 3.656 0 0 0 3.653-3.653V45.543a3.656 3.656 0 0 0-3.653-3.653M20.893 62.437H9.478a3.656 3.656 0 0 0-3.653 3.653v11.415a3.656 3.656 0 0 0 3.653 3.653h11.415a3.656 3.656 0 0 0 3.653-3.653V66.09a3.656 3.656 0 0 0-3.653-3.653m20.547 0H30.025a3.656 3.656 0 0 0-3.653 3.653v11.415a3.656 3.656 0 0 0 3.653 3.653H41.44a3.656 3.656 0 0 0 3.653-3.653V66.09a3.656 3.656 0 0 0-3.653-3.653m0-61.64H9.478a3.656 3.656 0 0 0-3.653 3.652v31.962a3.656 3.656 0 0 0 3.653 3.653H41.44a3.656 3.656 0 0 0 3.653-3.653V4.45A3.656 3.656 0 0 0 41.44.796m41.094 0H50.572a3.656 3.656 0 0 0-3.653 3.652v73.056a3.656 3.656 0 0 0 3.653 3.653h31.962a3.656 3.656 0 0 0 3.653-3.653V4.45A3.656 3.656 0 0 0 82.534.796"></path></svg></svg>